<mxfile host="app.diagrams.net" modified="2024-01-15T02:43:51.462Z" agent="Mozilla/5.0 (Macintosh; Intel Mac OS X 10_15_7) AppleWebKit/605.1.15 (KHTML, like Gecko) Version/17.2.1 Safari/605.1.15" version="22.1.16" etag="3QAq-W7blCtrlsONTwuG" type="github">
  <diagram name="Page-1" id="xk91bYvQZeUl-x8rTgi2">
    <mxGraphModel>
      <root>
        <mxCell id="0" />
        <mxCell id="1" parent="0" />
      </root>
    </mxGraphModel>
  </diagram>
</mxfile>
